# xmcd CD database file
# Copyright (C) 1997 Ti Kan
# 
# Track frame offsets:
#     150
#     3072
#     26177
#     51297
#     73422
#     96600
#     120060
#     140922
#     166425
#     191237
#     214487
#     236082
#     256105
#     283620
#     303015
#     324605
# 
# Disc length: 4804 seconds
# 
# Revision: 1
# Processed by: cddbd v1.4b41PL1 Copyright (c) Steve Scherf et al.
# Submitted via: DiscPlay 4.0.3
# 
DISCID=f212c210
DTITLE=London Jones - For You
DYEAR=1900
DGENRE=
TTITLE0=Intro
TTITLE1=Joi
TTITLE2=Save Our Love
TTITLE3=You Said
TTITLE4=Middleman
TTITLE5=Love Means We
TTITLE6=I Lust 4 You
TTITLE7=Baby Get Yours Tonight
TTITLE8=You're So Special
TTITLE9=Over and Over
TTITLE10=Your Nature
TTITLE11=Give and Take
TTITLE12=What Makes a Man
TTITLE13=Flip the Script
TTITLE14=Little Miss Thang
TTITLE15=Joi (Remix)
EXTD=
EXTT0=
EXTT1=
EXTT2=
EXTT3=
EXTT4=
EXTT5=
EXTT6=
EXTT7=
EXTT8=
EXTT9=
EXTT10=
EXTT11=
EXTT12=
EXTT13=
EXTT14=
EXTT15=
PLAYORDER=
